<?xml version="1.0" standalone="no"?>
<!DOCTYPE svg PUBLIC "-//W3C//DTD SVG 20010904//EN"
 "http://www.w3.org/TR/2001/REC-SVG-20010904/DTD/svg10.dtd">
<svg version="1.0" xmlns="http://www.w3.org/2000/svg"
 width="646.000000pt" height="646.000000pt" viewBox="0 0 646.000000 646.000000"
 preserveAspectRatio="xMidYMid meet">
<metadata>
Created by potrace 1.14, written by Peter Selinger 2001-2017
</metadata>
<g transform="translate(0.000000,646.000000) scale(0.100000,-0.100000)"
fill="#000000" stroke="none">
<path d="M4470 5599 c-33 -14 -59 -38 -77 -74 -14 -26 -16 -188 -16 -1417 0
-763 -1 -1388 -2 -1388 -1 0 -28 11 -59 25 -143 63 -215 78 -396 81 -115 1
-160 -2 -220 -17 -192 -49 -309 -109 -452 -232 l-58 -49 -62 57 c-164 148
-374 232 -606 242 -287 13 -531 -79 -737 -276 l-51 -48 -20 21 c-10 12 -46 44
-79 72 -484 413 -1243 259 -1527 -311 -78 -157 -109 -298 -103 -475 2 -63 6
-125 8 -136 3 -12 8 -38 11 -58 10 -64 71 -212 122 -298 66 -111 212 -258 324
-326 236 -145 488 -183 785 -118 65 14 276 111 295 135 3 3 23 19 45 35 22 16
61 49 87 74 25 24 51 43 56 41 6 -2 35 -27 64 -54 289 -272 725 -340 1098
-171 64 29 169 100 233 157 l62 55 40 -39 c110 -107 316 -217 455 -242 14 -3
36 -7 50 -11 14 -3 79 -7 145 -9 167 -5 310 24 446 89 l47 22 18 -33 c9 -19
34 -43 53 -56 34 -21 46 -22 261 -22 214 0 227 1 261 22 19 12 41 33 48 47
l13 24 61 -25 c113 -46 214 -66 347 -69 222 -4 404 48 585 169 90 60 232 210
289 305 52 87 112 235 122 299 3 21 9 55 14 76 4 21 7 97 5 170 -4 175 -36
297 -115 444 -146 272 -403 457 -710 512 -79 14 -263 12 -346 -4 -39 -7 -104
-25 -145 -39 -41 -14 -78 -27 -84 -28 -7 -2 -10 461 -11 1373 -1 1335 -1 1378
-20 1409 -10 18 -32 42 -47 54 -27 20 -42 21 -255 23 -136 1 -237 -2 -252 -8z"/>
</g>
</svg>
