<svg xmlns="http://www.w3.org/2000/svg" viewBox="0 0 268.49 430.37">
   <defs>
      <style>.cls-1{fill:#fff;}.cls-1,.cls-2,.cls-5{stroke:#1d1d1b;}.cls-1,.cls-2,.cls-3,.cls-5{stroke-miterlimit:10;}.cls-1,.cls-2{stroke-width:7px;}.cls-2,.cls-5{fill:none;}.cls-3,.cls-6{fill:#fe6a41;}.cls-3{stroke:#050505;stroke-width:8px;}.cls-4{fill:#1d1d1b;}.cls-5{stroke-width:5px;}</style>
   </defs>
   <g id="Vrstva_2" data-name="Vrstva 2">
      <g id="Vrstva_1-2" data-name="Vrstva 1">
         <path class="cls-1" d="M26.73,103c-5.48-2-10.54-4.49-13.76-7.37C-3.11,81.24,7.08,62.12,19.22,56.1c9-4.47,21.48-2,21.48-2" />
         <path class="cls-1" d="M235,121.2s13.75-2.49,21.55-10.15c10.49-10.29,14.4-32.13-7.23-39.4C245,70.19,238.87,69.81,232.49,70" />
         <path class="cls-1" d="M13.41,99.55s-12.1,51.32,11.46,77.91H61.36L34.41,103Z" />
         <path class="cls-1" d="M253.27,117s8.88,21.93-23,73.17-41.75-16.74-41.75-16.74L225.83,117Z" />
         <ellipse class="cls-1" cx="93.38" cy="423.58" rx="7.93" ry="3.29" />
         <ellipse class="cls-1" cx="146.1" cy="422.56" rx="7.63" ry="3.12" />
         <polyline class="cls-1" points="141.05 404.81 139 419.44 138.47 422.56" />
         <line class="cls-1" x1="95.55" y1="400.75" x2="101.31" y2="423.58" />
         <ellipse class="cls-1" cx="58.87" cy="385.63" rx="3" ry="5.02" transform="translate(-94.64 27.01) rotate(-14.49)" />
         <ellipse class="cls-1" cx="249.2" cy="309.77" rx="3.55" ry="4.4" />
         <path class="cls-2" d="M210.23,336.38l18.61-3a15.73,15.73,0,0,0,11-7.59l9.31-16" />
         <path class="cls-2" d="M61.22,343,45.84,356.31a10.71,10.71,0,0,0-.57,15.62l13.6,13.7" />
         <path class="cls-1" d="M63.65,345s-29.27,51.5,53,58.4c82.5,6.91,59.37-47.42,59.38-49" />
         <path class="cls-1" d="M20.42,204.72s-16.3,15.77-16.9,45.76c-.79,39.28,22.38,96,114.57,104C205.25,362,239,316.84,247.6,278.6c7.12-31.73-4.51-57.19-4.51-57.19Z" />
         <ellipse class="cls-3" cx="132.32" cy="107.08" rx="105.84" ry="103.08" />
         <path class="cls-3" d="M248.92,209c-.62,1.77-3.12,7.73-9,8.87-17.92,3.44-63.87-1.16-112-5.17-44.41-3.71-88-4.29-107.13-10.23-8.42-2.61-9.81-10.1-9.61-12.4s3.57-8.68,12.24-9.87c19.78-2.7,62.28,1.55,106.77,5.26,48.12,4,94.79,3.72,111.56,10.92C247.8,198.94,249.43,207.51,248.92,209Z" />
         <circle class="cls-4" cx="87.15" cy="251.71" r="6.72" />
         <circle class="cls-4" cx="161.25" cy="259.32" r="6.72" />
         <path class="cls-5" d="M116.33,253.72l-.1,3.86a10,10,0,0,0,.93,4.69,10.2,10.2,0,0,0,3.23,3.8h0a5.53,5.53,0,0,0,5.83.36l.62-.33a7.63,7.63,0,0,0,2.58-2.37,11.27,11.27,0,0,0,1.84-5.08l.59-4.93" />
         <ellipse class="cls-6" cx="91.71" cy="274.45" rx="13.46" ry="9.15" />
         <ellipse class="cls-6" cx="156.36" cy="280.67" rx="13.46" ry="9.15" />
      </g>
   </g>
</svg>